<svg xmlns="http://www.w3.org/2000/svg" viewBox="0 0 1988.84 1988.84"><defs><style>.cls-1{fill:#fff;}</style></defs><title>white</title><g id="Layer_2" data-name="Layer 2"><g id="Layer_1-2" data-name="Layer 1"><g id="Layer_2-2" data-name="Layer 2"><g id="Layer_1-2-2" data-name="Layer 1-2"><path class="cls-1" d="M613.24,290.84s96,73.39,100.16,124.55-10.42,99-10.42,99-58.45-31.94-66.69-52.69-23-47.91-23-47.91-8.34,55.77,33.38,100.6,67.52,78.26,67.52,78.26a610.58,610.58,0,0,1-53.6-34.87,278.43,278.43,0,0,1-34.79-30.62s57.86,92.62,88.39,108.61,10.13,36.81,20,46.29c4.87,4.61,25.89-.94,29.91-5.87,17.17-21.49-19.49-67.52-21.58-99.4S753,481,730.08,412.43,613.24,290.84,613.24,290.84Z"/><path class="cls-1" d="M1378.73,291s-96,73.39-100.16,124.55,10.42,99,10.42,99,58.45-31.94,66.78-52.84,23-47.91,23-47.91,8.34,55.77-33.38,100.6-67.52,78.26-67.52,78.26a610.57,610.57,0,0,0,53.6-34.87,278.43,278.43,0,0,0,34.79-30.62s-57.86,92.62-88.39,108.61-10.1,36.84-20.11,46.32c-4.87,4.61-25.89-.94-29.91-5.87-17.17-21.49,19.49-67.52,21.58-99.4s-10.42-95.81,12.53-164.39S1378.73,291,1378.73,291Z"/><path class="cls-1" d="M896.28,1705.84c-1.29-.53-84.84-36.49-84.84-77.67S833.7,1568,858.06,1568s6.93,54.84,6.93,54.84C867.75,1661.6,895.43,1704.52,896.28,1705.84Z"/><rect class="cls-1" x="996.56" y="1321.84" width="0.03" height="0.21"/><rect class="cls-1" x="996.56" y="1866.29" width="0.03" height="0.21"/><path d="M807.63,1549.05l-.47,1v-.41Z"/><rect x="996.56" y="1866.29" width="0.03" height="0.21"/><path class="cls-1" d="M994.68,1867.79"/><path class="cls-1" d="M995.39,1305.58"/><rect class="cls-1" x="996.56" y="1321.84" width="0.03" height="0.21"/><rect class="cls-1" x="996.56" y="1866.29" width="0.03" height="0.21"/><path class="cls-1" d="M1181.47,1628.16c0,41.1-83.54,77.15-84.84,77.67.85-1.32,28.5-44.24,31.26-83,0,0-17.38-54.84,7-54.84S1181.47,1586.63,1181.47,1628.16Z"/><rect x="996.56" y="1321.84" width="0.03" height="0.21"/><path class="cls-1" d="M1001.32,1867.79"/><path class="cls-1" d="M1000.61,1305.58"/><path class="cls-1" d="M1464.83,340.48a525.45,525.45,0,0,0-17.61-84.25,413.09,413.09,0,0,0-14.5-41.1c-2.94-6.81-5.87-13.62-9.6-20.55a114.63,114.63,0,0,0-13.94-21,54.25,54.25,0,0,0-5.67-5.67c-1.82-1.53-3.67-2.94-5.64-4.37a75.62,75.62,0,0,0-12.12-7,83.69,83.69,0,0,0-26.42-7,84.6,84.6,0,0,0-51.69,11.54,78.44,78.44,0,0,0-20.55,17.88,75.86,75.86,0,0,0-7.6,11.27,108.06,108.06,0,0,0-5.34,11.3,320.53,320.53,0,0,0-12.59,42.27c-3.23,13.65-6.16,27-9.54,40a269.42,269.42,0,0,1-11.74,37.13,97.46,97.46,0,0,1-8.48,16c-.73,1.23-1.61,2.26-2.41,3.41l-3.29,4.34c-1.12,1.53-2.32,2.94-3.41,4.55l-3.11,4.67a244.65,244.65,0,0,0-20.28,38.81,802.69,802.69,0,0,0-27.48,79.7q-6,19.95-11.74,39.86l-1.44,5L1157,521.8c-1,3.2-2.14,6.34-3.23,9.51-2.35,6.31-4.76,12.62-7.43,18.85a619,619,0,0,1-37.49,72.71c-7,11.74-14.24,23.48-21.87,34.79-2.26,3.41-4.52,6.81-6.84,10.16h-7.78l-2.94.26c-3.64.32-7.31.68-10.95,1.06,2.17-22.93,2.94-53.93-7.07-63.49-16.53-15.79-8.28-61.47-8.28-61.47s-26.63,52.34-21.11,77.29a13.24,13.24,0,0,1,.26,1.56c-2.94-11.74-6.6-22.25-11.74-27.56C992.22,576.58,949.8,569,947.92,568.8c1.35.88,23.22,15.15,38.34,50.2a56,56,0,0,1,3.49,11.07,148.74,148.74,0,0,0-22.34-26.89c-22.43-22.43-61.65-24-61.65-24s24.22,3.73,40.86,44a70.28,70.28,0,0,1,3.32,47.38l-2-.23c-8.1-.91-16.17-1.76-24.28-2.5l-2.94-.26H916.3a37.61,37.61,0,0,0-6,.32c-2.35-3.43-4.7-6.9-7-10.36-7.6-11.39-14.68-23-21.87-34.79A623.44,623.44,0,0,1,844,550.1c-2.67-6.22-5.08-12.53-7.4-18.85-1.12-3.17-2.26-6.31-3.26-9.48l-1.5-4.78-1.47-5c-3.85-13.27-7.75-26.42-11.74-39.86a810,810,0,0,0-27.45-79.7,245.73,245.73,0,0,0-20.31-38.75l-3.11-4.7c-1.09-1.53-2.26-2.94-3.41-4.55L761,340.12c-.79-1.14-1.64-2.17-2.41-3.41a98.28,98.28,0,0,1-8.28-15.85,267.13,267.13,0,0,1-11.74-37.16c-3.35-13-6.28-26.42-9.54-40a316.12,316.12,0,0,0-12.95-42.36,110.94,110.94,0,0,0-5.34-11.27,73,73,0,0,0-7.6-11.27,79.26,79.26,0,0,0-20.55-17.88,84.45,84.45,0,0,0-51.75-11.54,82.69,82.69,0,0,0-26.24,7,75.91,75.91,0,0,0-12.15,7c-1.94,1.35-3.79,2.94-5.64,4.37a57.24,57.24,0,0,0-5.67,5.67,116.39,116.39,0,0,0-13.91,21c-3.67,6.87-6.75,13.65-9.63,20.55a415.7,415.7,0,0,0-14.5,41.1,525.45,525.45,0,0,0-17.61,84.25,398.52,398.52,0,0,0-2.23,87.21,397.88,397.88,0,0,0,18.88,85.13,564.64,564.64,0,0,0,33.05,79.26,491.75,491.75,0,0,0,45.56,73.39,272.56,272.56,0,0,0,29.59,33.29c2.67,2.61,5.87,5.2,8.51,7.6l8,6.69c5.43,4.46,10.8,8.81,16.29,13.24q16.38,13.18,33.2,25.83c4.08,3.11,8.28,6.14,12.51,9.13a48.49,48.49,0,0,0-2.11,5.87,47.41,47.41,0,0,0-1.73,14c0,1.2.15,2.38.23,3.55l.18,1.67.35,2.94,1.38,12.06,2.55,22.6,1-1.14a2.7,2.7,0,0,0-.21.41,5.46,5.46,0,0,0-.47,1.56v.7l-.18-1.53-2.23,2.55-48,55.19-8,9.16-4,4.58-2.55,2.94A48.3,48.3,0,0,0,654.58,922a51.2,51.2,0,0,0-.47,6.84v11a20.27,20.27,0,0,0,.21,3.52,48.61,48.61,0,0,0,9.63,24.6,54.72,54.72,0,0,0,3.9,4.61l2.08,2.08,1.88,1.7,4.58,4,18.29,16,9.16,7.93,2.94,2.47v-2.2a5.49,5.49,0,0,0,.53,2.64h0l-.59-.5-.44,8.81-1,24.48c-1.2,32.7-2,65.37-1.41,98.57,0,8.28.41,16.64.85,25.07.18,4.2.53,8.51.79,12.77l.68,6.93.82,6.58c2.44,17.06,5.49,33.08,8.81,49.23,13.12,64.14,28.06,127.17,43.18,190.31,7.51,31.56,15.47,63,23.48,94.44l5.87,23.48v.35h0v.18c0,.18.41,0-3.35,4.76a167,167,0,0,0-26.1,48.2,108.82,108.82,0,0,0-5.43,28.8,89,89,0,0,0,.62,15.26c.35,2.55.76,5.08,1.35,7.6.26,1.32.56,2.44.88,3.55l.88,3.32A119.33,119.33,0,0,0,784.09,1709a89.69,89.69,0,0,0,11,10.07c1,.76,2,1.53,2.94,2.26l1.7,1.17a10.68,10.68,0,0,1,1.67,1.53,7,7,0,0,1,1,1.53,25.6,25.6,0,0,1,1.32,3.64c.94,3.11,1.82,6.87,2.7,10.74,1.79,7.75,3.61,16.06,5.87,24.34a204.58,204.58,0,0,0,8.81,24.83,135.27,135.27,0,0,0,75.15,74.24q7.31,2.94,14.68,5.25c1.91,3.58,3.35,8,5.46,12.65a50.17,50.17,0,0,0,8.81,13.53,47.56,47.56,0,0,0,13,9.8,70.9,70.9,0,0,0,14.5,5.64,119.51,119.51,0,0,0,14.68,3.14,229.34,229.34,0,0,0,29.36,2.29v.21a228,228,0,0,0,29.82-2.35,98.49,98.49,0,0,0,29.47-9.07,50.69,50.69,0,0,0,13.27-9.69,53.57,53.57,0,0,0,9.33-13.3c2.38-4.61,4.11-9.13,6.22-12.77.21-.38.41-.73.65-1.09,3.79-1.26,7.57-2.64,11.3-4.17a135.27,135.27,0,0,0,75-73.95,196.67,196.67,0,0,0,8.81-24.83c2.35-8.28,4.2-16.59,5.87-24.36.88-3.85,1.76-7.6,2.7-10.74a26.42,26.42,0,0,1,1.32-3.61,7,7,0,0,1,1.06-1.56,11.89,11.89,0,0,1,1.64-1.5l1.7-1.17c1.06-.73,2.08-1.5,3.08-2.26a95,95,0,0,0,11-10.07,119.59,119.59,0,0,0,26.89-49.61l.91-3.35c.29-1.09.59-2.2.85-3.52.59-2.52,1-5.08,1.35-7.6a89,89,0,0,0,.62-15.26,108.61,108.61,0,0,0-5.43-28.8,167.56,167.56,0,0,0-26.1-48.23c-3.76-4.76-3.11-4.11-3.35-4.73s0-.21,0-.18h0v-.32l5.87-23.48c7.93-31.47,15.88-62.91,23.48-94.46,15.12-63.11,30.06-126.23,43.18-190.28,3.2-16.15,6.22-32.29,8.81-49.26l.82-6.55.68-6.93c.26-4.26.65-8.57.82-12.77q.62-12.62.82-25.1c.59-33.17-.21-65.84-1.41-98.54l-1-24.48-.41-9,2.94-2.41,9.16-7.93,18.32-16,4.55-4,1.88-1.7c.7-.65,1.41-1.35,2.08-2.05a50.88,50.88,0,0,0,3.9-4.64,47.88,47.88,0,0,0,9.6-24.48c0-1.17.18-2.35.21-3.52v-11a46.47,46.47,0,0,0-.47-6.84,50.13,50.13,0,0,0-1.5-6.75,49.29,49.29,0,0,0-5.49-12,46.15,46.15,0,0,0-3.64-5l-2.55-2.94-4-4.55-8-9.16-15.94-18.32-31.88-36.64-2.23-2.55,2.58-22.6,1.35-12.06.35-2.94.18-1.67c0-1.17.18-2.38.23-3.55a48.26,48.26,0,0,0-1.7-14,47.38,47.38,0,0,0-2.94-7.57q5.25-3.7,10.36-7.57,16.88-12.68,33.17-25.83c5.49-4.34,10.89-8.81,16.29-13.24l8.07-6.69c2.73-2.41,5.87-5,8.51-7.6a270.35,270.35,0,0,0,29.65-33.41A487.61,487.61,0,0,0,1415,592.25,563.62,563.62,0,0,0,1448.1,513,397.61,397.61,0,0,0,1467,427.87,398.47,398.47,0,0,0,1464.83,340.48ZM1286.3,939v.38h0ZM1063.73,690.74Zm-356.6,6.55c-5.2-4.4-10.33-8.81-15.47-13.42L684,677.09c-2.38-2.2-4.58-4.08-6.78-6.37a254.3,254.3,0,0,1-24.89-29.15,451.36,451.36,0,0,1-40.86-67.81A541.78,541.78,0,0,1,581.22,500a375.74,375.74,0,0,1-16.76-76.32,356.34,356.34,0,0,1,1.88-78.14,522.25,522.25,0,0,1,15.91-77.91,378.21,378.21,0,0,1,12.68-37.13c2.44-5.87,5-11.74,7.84-17.14a77.5,77.5,0,0,1,8.63-13.62A18.73,18.73,0,0,1,613,198c.85-.7,1.64-1.38,2.55-2a38.4,38.4,0,0,1,5.87-3.38A42.74,42.74,0,0,1,635,188.89a47.14,47.14,0,0,1,28,5.55,40.39,40.39,0,0,1,10.8,8.81,48.64,48.64,0,0,1,4.14,5.87,69.66,69.66,0,0,1,3.79,7.28,288.71,288.71,0,0,1,12.68,36.66c8,26.1,14.68,53.66,28.3,80.79a127.2,127.2,0,0,0,12.39,20c1.17,1.64,2.61,3.2,3.93,4.78l3.2,3.73a40.9,40.9,0,0,1,2.94,3.55l2.94,3.76A219.55,219.55,0,0,1,768.65,403c6,11.74,11.39,24.31,16.38,37s9.78,25.48,14.18,38.51,8.81,26.1,13.09,39.22l3.05,10c1.12,3.38,2.38,6.69,3.61,10,2.55,6.6,5.2,13.18,8.07,19.61,11.33,25.77,24.28,50.52,37.84,74.88,6.72,12.24,13.74,24.25,20.75,36.31l3.17,5.37c-29.77,11.74-59,24.63-87.92,38.16-14.68,6.84-29.18,14-43.77,21-.62.26-2.52,1.23-4,2.05h0l-14.68-11.74Q722.68,710.67,707.12,697.29Zm61.44,394a28.59,28.59,0,0,1-13.91-6.78,17.61,17.61,0,0,1-6.19-14.94l5.25-48.41H754c1.26.47,2.5.88,3.73,1.26a72.54,72.54,0,0,0,49.61-1.64c12.74-5,16.7-17.32,9-26.42a231.9,231.9,0,0,0-33.26-31.67C762.78,946.63,743,941.2,726.14,944.4c3.32-15,15.73-28.56,35.46-35,12.06-4,24.66-4.34,36,2.94,37,23.48,87.65,70.45,55,138.59C831.26,1095.25,792.75,1096,768.56,1091.29Zm39.07,457.94-.47,1v-.41Zm260.53,326.72a41.92,41.92,0,0,1-7.57,10,39.25,39.25,0,0,1-10.39,6.69,86.19,86.19,0,0,1-25.77,6.55,214.52,214.52,0,0,1-27.89,1.09v-.21a212,212,0,0,1-27.39-1,107.45,107.45,0,0,1-13.12-2.26,56.71,56.71,0,0,1-12.06-4.11,34.4,34.4,0,0,1-9.86-6.75,37.52,37.52,0,0,1-7-10c-.62-1.17-1.17-2.41-1.73-3.7a197.94,197.94,0,0,0,20.84,3.79,321.51,321.51,0,0,0,50.26,2.47v.21a321.53,321.53,0,0,0,50.26-2.47,230.75,230.75,0,0,0,23.48-4.37c-.7,1.38-1.38,2.67-2.08,3.9Zm140.9-291.11c6.6,11.74,11.48,25,11.13,38.51v1.12a58.71,58.71,0,0,1-1.61,10.22c-.73,3.46-1.67,6.84-2.61,10.22-2,6.75-4.29,13.42-6.93,19.93a224.74,224.74,0,0,1-19.34,37l-25.77,24.42-.47.44v.68a134,134,0,0,1-3.93,30.24,148,148,0,0,1-10,28.71,128.81,128.81,0,0,1-37.66,47,150.39,150.39,0,0,1-54.66,26,241.53,241.53,0,0,1-60.56,7.1h0v-.18a241.59,241.59,0,0,1-60.59-7.1,150.39,150.39,0,0,1-54.66-26,128.19,128.19,0,0,1-37.63-47,145.48,145.48,0,0,1-10.07-28.71,135.74,135.74,0,0,1-3.93-30.06v-.68l-.44-.44-25.83-24.42a228.15,228.15,0,0,1-19.32-37.34c-2.64-6.55-4.9-13.21-6.9-19.93-.94-3.41-1.91-6.78-2.61-10.22a56.8,56.8,0,0,1-1.64-10.24v-1c-.38-13.53,4.52-26.8,11.13-38.66a153,153,0,0,1,23.48-31.23c.62-.68,1.29-1.35,2-2h.15l.29-.91c1.53-4.61,2.94-9.22,4-13.83l1.73-6.93,1.5-6.93c1.17-5.4,2.2-10.77,3.11-16.17.7-3.87,1.32-7.78,1.91-11.74v-.85l-.65-2.94c-.53-2.5-1.12-5.87-1.53-8.81s-.85-6.14-1.14-9.22c-.68-6.16-1-12.36-1.14-18.49a145.92,145.92,0,0,1,3.73-36.11,115.34,115.34,0,0,1,13-32.29,100.28,100.28,0,0,1,22.46-25.77c17.61-14.68,40.48-23.92,64.38-29.62a383.61,383.61,0,0,1,75-8.63h0v.21a385.85,385.85,0,0,1,74.94,8.6c23.89,5.87,46.7,14.82,64.38,29.65a99.6,99.6,0,0,1,22.46,25.74,115.86,115.86,0,0,1,13,32.29,144.31,144.31,0,0,1,3.73,36.08c-.15,6.16-.47,12.36-1.12,18.52-.32,3.08-.7,6.16-1.17,9.22s-1,6.28-1.53,8.81l-.65,2.94v.85c.59,3.87,1.2,7.78,1.91,11.74.91,5.37,1.94,10.77,3.11,16.15l1.53,7,1.7,6.93c1.17,4.61,2.47,9.22,4,13.83l.29.91h.18c.68.68,1.35,1.35,2,2a153,153,0,0,1,24,31.2ZM1267,944.9c-16.85-3.17-36.66,2.23-56.95,18.32a233,233,0,0,0-33.17,31.7c-7.72,9.16-3.76,21.43,9,26.42a72.54,72.54,0,0,0,49.61,1.64c1.23-.38,2.47-.79,3.7-1.26h.26l5.2,48.35a17.61,17.61,0,0,1-6.19,14.94,28.59,28.59,0,0,1-13.91,6.78c-24.19,4.81-62.7,4-84-40.48-32.67-68.63,18-115.6,55-138.94,11.3-7.16,23.92-6.81,36-2.94,19.7,6.58,32.11,20.14,35.46,35.08Zm158.93-521.17a373.78,373.78,0,0,1-16.76,76.32A543.07,543.07,0,0,1,1379,574a451.54,451.54,0,0,1-41.1,67.81A256.65,256.65,0,0,1,1313,670.93c-2.23,2.26-4.4,4.17-6.81,6.37l-7.66,6.78c-5.14,4.49-10.27,9-15.47,13.42q-15.56,13.33-31.44,26.1l-13.5,10.71-2.29-1.17c-14.68-7-29.12-14.15-43.8-21-29.36-13.77-59-26.77-89.18-38.69l-1-.41,2.64-4.46c7-12.06,14-24.1,20.72-36.31,13.56-24.36,26.42-49.11,37.87-74.88,2.94-6.43,5.49-13,8.07-19.61,1.2-3.35,2.5-6.66,3.61-10l3.32-10c4.32-13.12,8.81-26.21,13.12-39.22s9.19-25.86,14.15-38.54a403.08,403.08,0,0,1,16.41-37,219.4,219.4,0,0,1,20.37-33.32l2.94-3.76c1-1.23,2-2.38,2.94-3.55l3.2-3.73a45,45,0,0,0,4-4.78,128.31,128.31,0,0,0,12.53-19.93c13.5-27.12,20.34-54.69,28.3-80.81a294.53,294.53,0,0,1,12.68-36.61,69.66,69.66,0,0,1,3.79-7.28,49.55,49.55,0,0,1,4.14-5.87,41.1,41.1,0,0,1,10.8-8.81,47.41,47.41,0,0,1,28.09-5.61,42.59,42.59,0,0,1,13.59,3.76,38.4,38.4,0,0,1,5.87,3.38c.91.62,1.73,1.32,2.55,2a9.89,9.89,0,0,1,1.61,1.7,79.26,79.26,0,0,1,8.6,13.62,169.81,169.81,0,0,1,7.84,17.14,378.21,378.21,0,0,1,12.68,37.13,526.1,526.1,0,0,1,15.73,78A358.13,358.13,0,0,1,1425.94,423.73Z"/><path class="cls-1" d="M896.28,1705.84c-1.29-.53-84.84-36.49-84.84-77.67S833.7,1568,858.06,1568s6.93,54.84,6.93,54.84C867.75,1661.6,895.43,1704.52,896.28,1705.84Z"/><path class="cls-1" d="M1181.47,1628.16c0,41.1-83.54,77.15-84.84,77.67.85-1.32,28.5-44.24,31.26-83,0,0-17.38-54.84,7-54.84S1181.47,1586.63,1181.47,1628.16Z"/></g></g><path class="cls-1" d="M994.42,1988.84c-265.62,0-515.34-103.44-703.16-291.26S0,1260,0,994.42,103.44,479.08,291.26,291.26,728.8,0,994.42,0s515.34,103.44,703.16,291.26,291.26,437.54,291.26,703.16-103.44,515.34-291.26,703.16S1260,1988.84,994.42,1988.84Zm0-1944.8C470.37,44,44,470.37,44,994.42S470.37,1944.8,994.42,1944.8s950.39-426.34,950.39-950.39S1518.46,44,994.42,44Z"/></g></g></svg>